<?xml version="1.0" encoding="UTF-8" standalone="no"?>
<svg
   xmlns:dc="http://purl.org/dc/elements/1.1/"
   xmlns:cc="http://creativecommons.org/ns#"
   xmlns:rdf="http://www.w3.org/1999/02/22-rdf-syntax-ns#"
   xmlns:svg="http://www.w3.org/2000/svg"
   xmlns="http://www.w3.org/2000/svg"
   xmlns:sodipodi="http://sodipodi.sourceforge.net/DTD/sodipodi-0.dtd"
   xmlns:inkscape="http://www.inkscape.org/namespaces/inkscape"
   class="icon"
   height="511.96799"
   viewBox="0 0 507.392 1023.936"
   version="1.1"
   id="svg4"
   sodipodi:docname="icon.svg"
   width="507.392"
   inkscape:version="0.92.3 (2405546, 2018-03-11)"
   inkscape:export-filename="/home/slammer/Projects/lichess-accept-random-challenge/icons/48.png"
   inkscape:export-xdpi="9.0352945"
   inkscape:export-ydpi="9.0352945">
  <metadata
     id="metadata10">
    <rdf:RDF>
      <cc:Work
         rdf:about="">
        <dc:format>image/svg+xml</dc:format>
        <dc:type
           rdf:resource="http://purl.org/dc/dcmitype/StillImage" />
        <dc:title></dc:title>
      </cc:Work>
    </rdf:RDF>
  </metadata>
  <defs
     id="defs8" />
  <sodipodi:namedview
     pagecolor="#ffffff"
     bordercolor="#666666"
     borderopacity="1"
     objecttolerance="10"
     gridtolerance="10"
     guidetolerance="10"
     inkscape:pageopacity="0"
     inkscape:pageshadow="2"
     inkscape:window-width="1920"
     inkscape:window-height="1056"
     id="namedview6"
     showgrid="false"
     fit-margin-top="0"
     fit-margin-left="0"
     fit-margin-right="0"
     fit-margin-bottom="0"
     inkscape:zoom="0.48751698"
     inkscape:cx="217.24521"
     inkscape:cy="202.17061"
     inkscape:window-x="0"
     inkscape:window-y="24"
     inkscape:window-maximized="1"
     inkscape:current-layer="svg4"
     inkscape:snap-global="false" />
  <rect
     style="opacity:1;fill:#ffffff;stroke-width:2"
     id="rect6648"
     width="844.1474"
     height="845.59778"
     x="-166.6705"
     y="79.709351" />
  <path
     style="stroke-width:1.00063789;fill:#ffffff"
     inkscape:connector-curvature="0"
     id="path6646"
     d="m 628.89735,3.9359742 h -745.25103 c -75.90817,0 -137.34233,61.5863508 -137.34233,137.3898358 v 745.2841 c 0,75.80349 61.43416,137.32609 137.34233,137.32609 h 745.25103 c 75.9725,0 137.40667,-61.5226 137.40667,-137.32609 V 141.32581 C 766.23969,65.522325 704.80553,3.9359742 628.89735,3.9359742 Z M 0.98235619,396.21425 c -73.72098919,0 -133.48260619,-60.63004 -133.48260619,-135.34971 0,-74.71967 59.761617,-135.34971 133.48260619,-135.34971 73.72098881,0 133.54692381,60.63004 133.54692381,135.34971 0,74.71967 -59.825935,135.34971 -133.54692381,135.34971 z M 515.61405,906.24614 c -73.72098,0 -133.48259,-60.63004 -133.48259,-135.34971 0,-74.71967 59.76161,-135.34971 133.48259,-135.34971 73.72099,0 133.54693,60.63004 133.54693,135.34971 0,74.71967 -59.82594,135.34971 -133.54693,135.34971 z M 258.2982,651.2302 c -73.72099,0 -133.48259,-60.63004 -133.48259,-135.34972 0,-74.71967 59.7616,-135.34971 133.48259,-135.34971 73.72098,0 133.54693,60.63004 133.54693,135.34971 0,74.71968 -59.82595,135.34972 -133.54693,135.34972 z" />
  <path
     d="m 628.89735,3.9359742 h -745.25103 c -75.90817,0 -137.34233,61.5863508 -137.34233,137.3898358 v 745.2841 c 0,75.80349 61.43416,137.32609 137.34233,137.32609 h 745.25103 c 75.9725,0 137.40667,-61.5226 137.40667,-137.32609 V 141.32581 C 766.23969,65.522325 704.80553,3.9359742 628.89735,3.9359742 Z M 0.98235619,396.21425 c -73.72098919,0 -133.48260619,-60.63004 -133.48260619,-135.34971 0,-74.71967 59.761617,-135.34971 133.48260619,-135.34971 73.72098881,0 133.54692381,60.63004 133.54692381,135.34971 0,74.71967 -59.825935,135.34971 -133.54692381,135.34971 z M 515.61405,906.24614 c -73.72098,0 -133.48259,-60.63004 -133.48259,-135.34971 0,-74.71967 59.76161,-135.34971 133.48259,-135.34971 73.72099,0 133.54693,60.63004 133.54693,135.34971 0,74.71967 -59.82594,135.34971 -133.54693,135.34971 z M 258.2982,651.2302 c -73.72099,0 -133.48259,-60.63004 -133.48259,-135.34972 0,-74.71967 59.7616,-135.34971 133.48259,-135.34971 73.72098,0 133.54693,60.63004 133.54693,135.34971 0,74.71968 -59.82595,135.34972 -133.54693,135.34972 z"
     id="path2"
     inkscape:connector-curvature="0"
     style="stroke-width:1.00063789" />
  <g
     id="g6500"
     style="opacity:1;fill:none;fill-opacity:1;fill-rule:evenodd;stroke:#000000;stroke-width:1.5;stroke-linecap:round;stroke-linejoin:round;stroke-miterlimit:4;stroke-dasharray:none;stroke-opacity:1"
     transform="matrix(5.3067433,0,0,5.3067433,-116.78605,141.20331)">
    <g
       id="g6496"
       style="fill:#000000;stroke:#000000;stroke-linecap:butt">
      <path
         id="path6490"
         d="m 9,36 c 3.39,-0.97 10.11,0.43 13.5,-2 3.39,2.43 10.11,1.03 13.5,2 0,0 1.65,0.54 3,2 -0.68,0.97 -1.65,0.99 -3,0.5 -3.39,-0.97 -10.11,0.46 -13.5,-1 C 19.11,38.96 12.39,37.53 9,38.5 7.646,38.99 6.677,38.97 6,38 7.354,36.06 9,36 9,36 Z"
         inkscape:connector-curvature="0" />
      <path
         id="path6492"
         d="m 15,32 c 2.5,2.5 12.5,2.5 15,0 0.5,-1.5 0,-2 0,-2 0,-2.5 -2.5,-4 -2.5,-4 5.5,-1.5 6,-11.5 -5,-15.5 -11,4 -10.5,14 -5,15.5 0,0 -2.5,1.5 -2.5,4 0,0 -0.5,0.5 0,2 z"
         inkscape:connector-curvature="0" />
      <path
         id="path6494"
         d="m 25,8 a 2.5,2.5 0 1 1 -5,0 2.5,2.5 0 1 1 5,0 z"
         inkscape:connector-curvature="0" />
    </g>
    <path
       id="path6498"
       style="fill:none;stroke:#ffffff;stroke-linejoin:miter"
       d="m 17.5,26 h 10 M 15,30 H 30 M 22.5,15.5 v 5 M 20,18 h 5"
       inkscape:connector-curvature="0" />
  </g>
  <g
     id="g6526"
     style="opacity:1;fill:none;fill-opacity:1;fill-rule:evenodd;stroke:#000000;stroke-width:1.5;stroke-linecap:round;stroke-linejoin:round;stroke-miterlimit:4;stroke-dasharray:none;stroke-opacity:1"
     transform="matrix(5.3067433,0,0,5.3067433,141.74949,392.73581)">
    <path
       id="path6516"
       style="fill:#000000;stroke:#000000"
       d="m 22,10 c 10.5,1 16.5,8 16,29 H 15 c 0,-9 10,-6.5 8,-21"
       inkscape:connector-curvature="0" />
    <path
       id="path6518"
       style="fill:#000000;stroke:#000000"
       d="m 24,18 c 0.38,2.91 -5.55,7.37 -8,9 -3,2 -2.82,4.34 -5,4 -1.042,-0.94 1.41,-3.04 0,-3 -1,0 0.19,1.23 -1,2 -1,0 -4.003,1 -4,-4 0,-2 6,-12 6,-12 0,0 1.89,-1.9 2,-3.5 -0.73,-0.994 -0.5,-2 -0.5,-3 1,-1 3,2.5 3,2.5 h 2 c 0,0 0.78,-1.992 2.5,-3 1,0 1,3 1,3"
       inkscape:connector-curvature="0" />
    <path
       id="path6520"
       style="fill:#ffffff;stroke:#ffffff"
       d="m 9.5,25.5 a 0.5,0.5 0 1 1 -1,0 0.5,0.5 0 1 1 1,0 z"
       inkscape:connector-curvature="0" />
    <path
       id="path6522"
       style="fill:#ffffff;stroke:#ffffff"
       transform="matrix(0.866,0.5,-0.5,0.866,9.693,-5.173)"
       d="m 15,15.5 a 0.5,1.5 0 1 1 -1,0 0.5,1.5 0 1 1 1,0 z"
       inkscape:connector-curvature="0" />
    <path
       id="path6524"
       style="fill:#ffffff;stroke:none"
       d="M 24.55,10.4 24.1,11.85 24.6,12 c 3.15,1 5.65,2.49 7.9,6.75 2.25,4.26 3.25,10.31 2.75,20.25 l -0.05,0.5 h 2.25 L 37.5,39 C 38,28.94 36.62,22.15 34.25,17.66 31.88,13.17 28.46,11.02 25.06,10.5 Z"
       inkscape:connector-curvature="0" />
  </g>
  <g
     id="g6564"
     style="opacity:1;fill-opacity:1;fill-rule:evenodd;stroke:#000000;stroke-width:1.5;stroke-linecap:round;stroke-linejoin:round;stroke-miterlimit:4;stroke-dasharray:none;stroke-opacity:1"
     transform="matrix(5.3067433,0,0,5.3067433,395.31867,643.68017)">
    <path
       id="path6542"
       style="stroke-linecap:butt"
       d="M 9,39 H 36 V 36 H 9 Z"
       inkscape:connector-curvature="0" />
    <path
       id="path6544"
       style="stroke-linecap:butt"
       d="M 12.5,32 14,29.5 h 17 l 1.5,2.5 z"
       inkscape:connector-curvature="0" />
    <path
       id="path6546"
       style="stroke-linecap:butt"
       d="m 12,36 v -4 h 21 v 4 z"
       inkscape:connector-curvature="0" />
    <path
       id="path6548"
       style="stroke-linecap:butt;stroke-linejoin:miter"
       d="m 14,29.5 v -13 h 17 v 13 z"
       inkscape:connector-curvature="0" />
    <path
       id="path6550"
       style="stroke-linecap:butt"
       d="M 14,16.5 11,14 h 23 l -3,2.5 z"
       inkscape:connector-curvature="0" />
    <path
       id="path6552"
       style="stroke-linecap:butt"
       d="M 11,14 V 9 h 4 v 2 h 5 V 9 h 5 v 2 h 5 V 9 h 4 v 5 z"
       inkscape:connector-curvature="0" />
    <path
       id="path6554"
       style="fill:none;stroke:#ffffff;stroke-width:1;stroke-linejoin:miter"
       d="m 12,35.5 h 21 v 0"
       inkscape:connector-curvature="0" />
    <path
       id="path6556"
       style="fill:none;stroke:#ffffff;stroke-width:1;stroke-linejoin:miter"
       d="M 13,31.5 H 32"
       inkscape:connector-curvature="0" />
    <path
       id="path6558"
       style="fill:none;stroke:#ffffff;stroke-width:1;stroke-linejoin:miter"
       d="M 14,29.5 H 31"
       inkscape:connector-curvature="0" />
    <path
       id="path6560"
       style="fill:none;stroke:#ffffff;stroke-width:1;stroke-linejoin:miter"
       d="M 14,16.5 H 31"
       inkscape:connector-curvature="0" />
    <path
       id="path6562"
       style="fill:none;stroke:#ffffff;stroke-width:1;stroke-linejoin:miter"
       d="M 11,14 H 34"
       inkscape:connector-curvature="0" />
  </g>
</svg>
